<mxfile host="app.diagrams.net" agent="Mozilla/5.0 (Windows NT 10.0; Win64; x64) AppleWebKit/537.36 (KHTML, like Gecko) Chrome/128.0.0.0 Safari/537.36" version="24.7.7">
  <diagram name="Page-1" id="PY7i92oOjuISGerA8wir">
    <mxGraphModel dx="1243" dy="547" grid="1" gridSize="10" guides="1" tooltips="1" connect="1" arrows="1" fold="1" page="1" pageScale="1" pageWidth="827" pageHeight="1169" math="0" shadow="0">
      <root>
        <mxCell id="0" />
        <mxCell id="1" parent="0" />
        <mxCell id="1nx0tE2UZjKB8xVgEcII-1" value="&lt;div&gt;Patient&lt;/div&gt;" style="shape=umlActor;verticalLabelPosition=bottom;verticalAlign=top;html=1;outlineConnect=0;" parent="1" vertex="1">
          <mxGeometry x="60" y="240" width="30" height="60" as="geometry" />
        </mxCell>
        <mxCell id="1nx0tE2UZjKB8xVgEcII-2" value="Psychology Doctor&lt;div&gt;&lt;br&gt;&lt;/div&gt;" style="shape=umlActor;verticalLabelPosition=bottom;verticalAlign=top;html=1;outlineConnect=0;" parent="1" vertex="1">
          <mxGeometry x="60" y="120" width="30" height="60" as="geometry" />
        </mxCell>
        <mxCell id="1nx0tE2UZjKB8xVgEcII-3" value="System Administrator" style="shape=umlActor;verticalLabelPosition=bottom;verticalAlign=top;html=1;outlineConnect=0;" parent="1" vertex="1">
          <mxGeometry x="60" y="370" width="30" height="60" as="geometry" />
        </mxCell>
        <mxCell id="64yVkqV5qo0Nr_YxNSAC-1" value="" style="rounded=0;whiteSpace=wrap;html=1;" vertex="1" parent="1">
          <mxGeometry x="130" y="85" width="440" height="370" as="geometry" />
        </mxCell>
        <mxCell id="64yVkqV5qo0Nr_YxNSAC-3" value="Information doctor" style="ellipse;whiteSpace=wrap;html=1;" vertex="1" parent="1">
          <mxGeometry x="380" y="250" width="110" height="60" as="geometry" />
        </mxCell>
        <mxCell id="64yVkqV5qo0Nr_YxNSAC-4" value="forum manament" style="ellipse;whiteSpace=wrap;html=1;" vertex="1" parent="1">
          <mxGeometry x="430" y="130" width="120" height="80" as="geometry" />
        </mxCell>
        <mxCell id="64yVkqV5qo0Nr_YxNSAC-5" value="Self illness&amp;nbsp;diagnosis" style="ellipse;whiteSpace=wrap;html=1;" vertex="1" parent="1">
          <mxGeometry x="310" y="100" width="100" height="60" as="geometry" />
        </mxCell>
        <mxCell id="64yVkqV5qo0Nr_YxNSAC-6" value="Chat room" style="ellipse;whiteSpace=wrap;html=1;" vertex="1" parent="1">
          <mxGeometry x="190" y="250" width="100" height="60" as="geometry" />
        </mxCell>
        <mxCell id="64yVkqV5qo0Nr_YxNSAC-7" value="&lt;div&gt;Login&lt;/div&gt;" style="ellipse;whiteSpace=wrap;html=1;" vertex="1" parent="1">
          <mxGeometry x="180" y="180" width="90" height="40" as="geometry" />
        </mxCell>
        <mxCell id="64yVkqV5qo0Nr_YxNSAC-8" value="" style="endArrow=classic;html=1;rounded=0;exitX=1;exitY=0.3333333333333333;exitDx=0;exitDy=0;exitPerimeter=0;entryX=0;entryY=0;entryDx=0;entryDy=0;" edge="1" parent="1" source="1nx0tE2UZjKB8xVgEcII-2" target="64yVkqV5qo0Nr_YxNSAC-7">
          <mxGeometry width="50" height="50" relative="1" as="geometry">
            <mxPoint x="130" y="220" as="sourcePoint" />
            <mxPoint x="187.55773675479531" y="183.3589941132425" as="targetPoint" />
          </mxGeometry>
        </mxCell>
        <mxCell id="64yVkqV5qo0Nr_YxNSAC-9" value="" style="endArrow=classic;html=1;rounded=0;exitX=1;exitY=0.3333333333333333;exitDx=0;exitDy=0;exitPerimeter=0;entryX=0;entryY=1;entryDx=0;entryDy=0;" edge="1" parent="1" source="1nx0tE2UZjKB8xVgEcII-1" target="64yVkqV5qo0Nr_YxNSAC-7">
          <mxGeometry width="50" height="50" relative="1" as="geometry">
            <mxPoint x="140" y="230" as="sourcePoint" />
            <mxPoint x="187.55773675479531" y="216.6410058867575" as="targetPoint" />
          </mxGeometry>
        </mxCell>
        <mxCell id="64yVkqV5qo0Nr_YxNSAC-13" value="Guest User" style="shape=umlActor;verticalLabelPosition=bottom;verticalAlign=top;html=1;outlineConnect=0;" vertex="1" parent="1">
          <mxGeometry x="650" y="140" width="30" height="60" as="geometry" />
        </mxCell>
        <mxCell id="64yVkqV5qo0Nr_YxNSAC-15" value="Post&amp;nbsp;" style="ellipse;whiteSpace=wrap;html=1;" vertex="1" parent="1">
          <mxGeometry x="295" y="320" width="110" height="60" as="geometry" />
        </mxCell>
      </root>
    </mxGraphModel>
  </diagram>
</mxfile>
